<svg xmlns="http://www.w3.org/2000/svg" viewBox="374 92 741 629" width="741" height="629" role="img" aria-label="ALUM">
<g transform="translate(0.000000,812.000000) scale(0.100000,-0.100000)">
<path fill="#FF6F61" fill-rule="evenodd" d="M7399 6803 c-24 -43 -54 -96 -66 -118 -13 -22 -33 -59 -44 -82 -11
-24 -24 -43 -28 -43 -5 0 -11 -8 -14 -17 -4 -10 -27 -54 -52 -98 -25 -44 -59
-105 -75 -135 -17 -30 -34 -62 -40 -70 -22 -35 -97 -167 -110 -195 -8 -16 -36
-66 -61 -110 -26 -44 -61 -109 -80 -145 -18 -36 -37 -66 -41 -68 -4 -2 -8 -8
-8 -12 0 -5 -13 -32 -30 -60 -16 -28 -30 -57 -30 -65 0 -8 -6 -18 -14 -22 -7
-4 -35 -48 -61 -98 -25 -49 -60 -110 -76 -135 -16 -25 -38 -63 -49 -85 -12
-22 -32 -58 -46 -80 -13 -22 -38 -69 -55 -104 -17 -36 -40 -73 -50 -85 -11
-11 -19 -28 -19 -37 0 -10 -6 -24 -13 -31 -17 -17 -55 -83 -102 -175 -20 -39
-43 -77 -51 -83 -8 -7 -14 -16 -14 -20 0 -5 -20 -43 -45 -84 -25 -42 -45 -78
-45 -81 0 -2 -14 -24 -30 -49 -17 -24 -42 -69 -56 -98 -31 -65 -55 -107 -86
-156 -13 -20 -35 -61 -48 -89 -14 -29 -28 -53 -32 -53 -4 0 -16 -17 -26 -37
-46 -91 -56 -109 -74 -132 -10 -13 -18 -29 -18 -35 0 -6 28 -27 63 -46 34 -18
85 -48 112 -65 28 -18 70 -43 95 -57 61 -34 102 -58 190 -110 41 -25 170 -100
285 -168 116 -67 253 -148 305 -180 147 -89 319 -190 380 -223 30 -17 84 -49
120 -72 36 -23 92 -56 124 -75 l59 -33 46 24 c25 13 84 47 131 75 92 55 405
240 620 367 74 43 200 118 280 165 444 262 581 342 628 366 17 9 32 22 32 29
0 6 -21 48 -46 92 -25 44 -60 105 -76 135 -51 92 -73 130 -136 240 -174 304
-268 472 -300 530 -19 36 -42 76 -52 90 -9 14 -32 52 -49 85 -18 33 -43 78
-56 100 -12 22 -68 120 -124 218 -55 97 -101 180 -101 182 0 3 -10 22 -23 43
-13 20 -40 66 -59 102 -69 126 -89 162 -303 540 -72 127 -138 246 -268 480
-69 123 -130 226 -135 228 -5 1 -29 -32 -53 -75z m81 -938 c0 -7 18 -38 130
-235 24 -41 47 -76 51 -78 5 -2 9 -10 9 -17 0 -11 238 -446 270 -495 6 -8 17
-28 26 -45 8 -16 21 -39 27 -50 36 -60 97 -168 135 -239 24 -45 79 -142 121
-216 43 -74 106 -185 140 -247 34 -61 68 -117 76 -123 8 -7 15 -18 15 -24 0
-7 14 -38 31 -69 l31 -57 -32 -18 c-17 -9 -60 -36 -96 -59 -36 -24 -85 -51
-108 -62 -24 -10 -47 -24 -50 -30 -4 -6 -22 -18 -39 -26 -18 -8 -63 -35 -102
-59 -38 -25 -76 -45 -82 -46 -7 0 -13 -4 -13 -9 0 -5 -10 -13 -22 -16 -13 -4
-53 -27 -90 -51 -37 -24 -70 -44 -74 -44 -6 0 -210 -118 -294 -171 -8 -5 -32
-18 -53 -29 l-37 -20 -59 32 c-33 18 -149 86 -258 150 -109 64 -210 121 -225
127 -14 5 -29 14 -32 20 -3 5 -37 26 -74 47 -37 20 -98 56 -137 79 -38 23
-115 68 -170 100 -153 89 -150 83 -95 174 24 42 87 153 153 271 13 25 42 74
62 110 21 36 85 148 142 250 57 102 114 201 125 220 20 34 38 66 118 215 20
39 55 102 77 140 22 39 81 142 130 230 50 88 106 187 125 220 20 33 53 92 73
132 l38 72 19 -24 c10 -13 18 -26 18 -30z M7131 6749 c-24 -17 -54 -35 -65 -40 -22 -9 -41 -20 -91 -54 -16 -11
-42 -27 -57 -35 -62 -34 -198 -117 -275 -167 -45 -29 -86 -53 -92 -53 -5 0
-22 -11 -38 -23 -15 -13 -40 -30 -55 -38 -50 -26 -193 -112 -198 -119 -3 -4
-21 -16 -41 -26 -20 -11 -62 -36 -93 -56 -31 -21 -71 -45 -88 -53 -38 -18 -73
-39 -184 -112 -45 -29 -86 -53 -92 -53 -6 0 -17 -6 -24 -12 -8 -7 -23 -18 -33
-24 -20 -11 -20 -28 -20 -889 0 -594 3 -879 10 -882 10 -3 36 38 110 172 16
28 60 106 100 175 40 69 109 191 154 272 l82 147 -1 360 c-1 408 -10 366 96
427 84 49 108 64 342 204 l191 115 72 130 c39 72 84 153 99 180 24 44 138 252
215 390 15 28 31 54 36 60 13 14 11 35 -3 35 -7 0 -33 -14 -57 -31z M7690 6774 c0 -4 17 -37 39 -73 21 -36 71 -127 112 -201 41 -73 91
-163 111 -200 21 -36 41 -72 45 -80 4 -8 35 -65 69 -125 l63 -110 173 -106
c95 -58 235 -143 311 -188 l137 -83 0 -366 0 -367 41 -70 c36 -61 77 -134 164
-290 12 -22 43 -76 69 -120 55 -93 50 -85 113 -197 47 -87 67 -105 76 -70 7
26 5 1729 -2 1740 -3 5 -43 31 -88 58 -45 27 -126 76 -180 108 -54 33 -120 73
-148 89 -57 34 -96 59 -175 109 -30 20 -71 44 -90 55 -19 10 -60 34 -90 53
-68 44 -587 359 -655 398 -56 33 -95 47 -95 36z"/>
<path fill="#0E7C86" fill-rule="evenodd" d="M7600 4944 c-138 -82 -157 -91 -175 -80 -119 76 -278 166 -293 166
-5 0 -44 -64 -87 -142 -43 -79 -89 -160 -102 -180 -13 -21 -23 -42 -23 -48 0
-12 15 -21 294 -191 121 -73 225 -132 231 -132 7 0 130 71 274 157 l262 158
-32 57 c-132 235 -181 321 -187 325 -4 2 -77 -38 -162 -90z"/>
<path fill="#15181D" fill-rule="evenodd" d="M4749 2371 c-19 -11 -47 -37 -61 -58 -45 -68 -628 -1073 -628 -1083
0 -6 53 -10 139 -10 115 0 141 3 152 16 12 14 77 124 121 203 l17 31 408 0
408 0 70 -123 70 -122 139 -3 c77 -1 143 1 147 5 4 4 -33 76 -81 158 -49 83
-194 329 -322 549 -168 288 -243 406 -267 425 -32 24 -42 26 -155 28 -104 3
-126 0 -157 -16z m187 -253 c46 -79 235 -418 240 -433 5 -13 -31 -15 -280 -15
-157 0 -286 2 -286 5 0 5 158 288 246 443 14 23 32 42 40 42 8 0 26 -19 40
-42z M5994 2376 c-3 -8 -4 -207 -2 -442 4 -502 4 -500 98 -595 104 -107
188 -121 690 -117 l355 3 3 112 3 112 -383 3 c-436 3 -439 4 -481 82 -21 40
-22 53 -27 446 l-5 405 -123 3 c-99 2 -123 0 -128 -12z M7424 2366 c-3 -13 -4 -197 -2 -407 4 -319 7 -394 21 -442 50 -172
137 -247 328 -283 117 -23 606 -15 694 10 117 34 185 86 228 174 50 100 52
120 52 557 l0 410 -125 0 -125 0 -5 -395 -5 -395 -29 -49 c-21 -36 -40 -53
-75 -69 -41 -19 -68 -22 -268 -25 -244 -4 -304 5 -361 53 -64 53 -66 70 -72
495 l-5 385 -122 3 c-122 3 -122 3 -129 -22z M9178 2372 c-59 -36 -58 -30 -56 -614 l3 -533 120 0 120 0 3 463 c2
410 4 462 18 462 16 0 17 -2 187 -380 231 -514 229 -510 302 -535 49 -17 141
-19 200 -4 74 19 92 46 225 346 68 153 153 344 189 426 49 110 70 147 83 147
17 0 18 -27 20 -462 l3 -463 114 -3 c85 -2 117 1 123 10 4 7 8 246 8 531 0
553 0 558 -50 602 -20 18 -39 20 -171 23 -164 4 -198 -4 -236 -57 -12 -15 -99
-205 -193 -422 -197 -450 -197 -452 -212 -447 -6 2 -27 40 -46 84 -235 537
-336 760 -353 783 -41 52 -71 60 -229 60 -119 0 -150 -3 -172 -17z"/>
</g>
</svg>
